HIERARCHY
ROOT Hips
{
	OFFSET -0.001795 -0.223333 0.028219
	CHANNELS 6 Xposition Yposition Zposition Zrotation Yrotation Xrotation 
	JOINT LeftUpLeg
	{
		OFFSET 0.069520 -0.091406 -0.006815
		CHANNELS 3 Zrotation Yrotation Xrotation
		JOINT LeftLeg
		{
			OFFSET 0.034277 -0.375199 -0.004496
			CHANNELS 3 Zrotation Yrotation Xrotation
			JOINT LeftFoot
			{
				OFFSET -0.013596 -0.397961 -0.043693
				CHANNELS 3 Zrotation Yrotation Xrotation
				JOINT LeftToe
				{
					OFFSET 0.026358 -0.055791 0.119288
					CHANNELS 3 Zrotation Yrotation Xrotation
					End Site
					{
						OFFSET 0.000000 0.000000 0.000000
					}
				}
			}
		}
	}
	JOINT RightUpLeg
	{
		OFFSET -0.067670 -0.090522 -0.004320
		CHANNELS 3 Zrotation Yrotation Xrotation
		JOINT RightLeg
		{
			OFFSET -0.038290 -0.382569 -0.008850
			CHANNELS 3 Zrotation Yrotation Xrotation
			JOINT RightFoot
			{
				OFFSET 0.015774 -0.398415 -0.042312
				CHANNELS 3 Zrotation Yrotation Xrotation
				JOINT RightToe
				{
					OFFSET -0.025372 -0.048144 0.123348
					CHANNELS 3 Zrotation Yrotation Xrotation
					End Site
					{
						OFFSET 0.000000 0.000000 0.000000
					}
				}
			}
		}
	}
	JOINT Spine
	{
		OFFSET -0.002533 0.108963 -0.026696
		CHANNELS 3 Zrotation Yrotation Xrotation
		JOINT Spine1
		{
			OFFSET 0.005487 0.135180 0.001092
			CHANNELS 3 Zrotation Yrotation Xrotation
			JOINT Spine2
			{
				OFFSET 0.001457 0.052922 0.025425
				CHANNELS 3 Zrotation Yrotation Xrotation
				JOINT Neck
				{
					OFFSET -0.002778 0.213870 -0.042857
					CHANNELS 3 Zrotation Yrotation Xrotation
					JOINT Head
					{
						OFFSET 0.005152 0.064970 0.051349
						CHANNELS 3 Zrotation Yrotation Xrotation
						End Site
						{
							OFFSET 0.000000 0.000000 0.000000
						}
					}
				}
				JOINT LeftShoulder
				{
					OFFSET 0.078845 0.121749 -0.034090
					CHANNELS 3 Zrotation Yrotation Xrotation
					JOINT LeftArm
					{
						OFFSET 0.090977 0.030469 -0.008868
						CHANNELS 3 Zrotation Yrotation Xrotation
						JOINT LeftForeArm
						{
							OFFSET 0.259612 -0.012772 -0.027456
							CHANNELS 3 Zrotation Yrotation Xrotation
							JOINT LeftHand
							{
								OFFSET 0.249234 0.008986 -0.001171
								CHANNELS 3 Zrotation Yrotation Xrotation
								End Site
								{
									OFFSET 0.000000 0.000000 0.000000
								}
							}
						}
					}
				}
				JOINT RightShoulder
				{
					OFFSET -0.081759 0.118833 -0.038615
					CHANNELS 3 Zrotation Yrotation Xrotation
					JOINT RightArm
					{
						OFFSET -0.096012 0.032551 -0.009143
						CHANNELS 3 Zrotation Yrotation Xrotation
						JOINT RightForeArm
						{
							OFFSET -0.253742 -0.013329 -0.021401
							CHANNELS 3 Zrotation Yrotation Xrotation
							JOINT RightHand
							{
								OFFSET -0.255298 0.007772 -0.005559
								CHANNELS 3 Zrotation Yrotation Xrotation
								End Site
								{
									OFFSET 0.000000 0.000000 0.000000
								}
							}
						}
					}
				}
			}
		}
	}
}
MOTION
Frames: 16
Frame Time: 0.050000
0.000000 0.950757 0.000000 -1.500285 1.016217 2.859385 9.149823 -0.176959 2.312290 -3.992295 0.413258 -6.782799 5.667306 14.109246 14.435684 0.000000 0.000000 0.000000 -5.277017 0.107640 0.686168 3.052827 -0.379826 -4.018014 -4.967276 -14.531173 15.279639 0.000000 0.000000 0.000000 -2.852687 0.058708 -0.615735 4.281411 -0.526053 -22.032455 -0.792595 -1.242584 27.997135 0.062433 1.485542 -26.963447 0.000000 0.000000 0.000000 -24.992378 0.578458 -1.668457 -53.555268 -8.808824 -4.996027 -10.789625 -23.094935 3.442669 0.000000 0.000000 0.000000 16.632930 5.387791 1.858597 61.029656 6.953262 -5.020345 5.274266 23.468645 2.068287 0.000000 0.000000 0.000000 
0.000032 0.949689 0.000257 -1.448783 0.355443 3.293265 9.403740 -0.178776 2.339051 -4.017640 0.421083 -7.258115 6.011422 14.575993 14.610040 0.000000 0.000000 0.000000 -5.458600 0.163397 0.027394 3.342496 -0.389838 -3.555648 -4.374642 -13.512415 14.682880 0.000000 0.000000 0.000000 -3.007697 0.086282 -1.949221 4.374687 -0.638638 -20.784767 -0.886233 -0.550914 27.783613 -0.147806 1.658249 -26.918831 0.000000 0.000000 0.000000 -25.568886 1.052291 -2.135156 -53.096803 -9.514704 -4.609415 -11.512467 -23.075104 3.567615 0.000000 0.000000 0.000000 16.169022 5.427672 1.933230 62.683444 6.505605 -5.307182 4.513514 25.092884 2.111784 0.000000 0.000000 0.000000 
0.000119 0.949238 0.000374 -1.167798 0.323055 3.385946 9.150713 -0.175148 1.721218 -4.314890 0.440148 -5.927502 5.916085 14.335625 13.781708 0.000000 0.000000 0.000000 -5.609979 0.164855 0.119587 2.844899 -0.358553 -3.972285 -4.124568 -13.144581 15.131423 0.000000 0.000000 0.000000 -2.916576 0.093487 -2.368941 4.194627 -0.598051 -20.651938 -1.200483 -0.594013 27.942080 0.378376 1.313356 -26.371546 0.000000 0.000000 0.000000 -25.533311 0.766236 -1.917015 -52.925595 -9.691847 -4.557190 -10.753521 -22.785490 3.365172 0.000000 0.000000 0.000000 17.252535 6.122492 2.267110 61.591886 6.060041 -5.487642 4.437065 25.170440 2.081697 0.000000 0.000000 0.000000 
0.000153 0.948698 0.000468 -1.222360 0.066688 3.605997 9.439299 -0.185553 1.523338 -4.758436 0.468313 -5.831880 6.289511 14.892081 13.962581 0.000000 0.000000 0.000000 -5.615429 0.198477 -0.401204 3.028057 -0.363995 -3.561091 -4.424450 -13.721522 15.357271 0.000000 0.000000 0.000000 -3.056517 0.104120 -2.884854 4.446143 -0.678722 -20.534476 -1.361313 -0.888940 27.921436 0.318131 1.224072 -25.493451 0.000000 0.000000 0.000000 -26.204505 1.418896 -2.247673 -52.459787 -9.647797 -4.569899 -11.256263 -22.735791 3.474838 0.000000 0.000000 0.000000 17.009657 6.543897 2.376128 61.782481 5.685664 -5.686169 4.808480 25.510569 2.170383 0.000000 0.000000 0.000000 
0.000111 0.948852 0.000539 -1.196576 0.348805 3.411418 9.380608 -0.188193 1.391525 -4.805953 0.471006 -5.451651 5.812708 14.172824 13.707116 0.000000 0.000000 0.000000 -5.574017 0.175253 -0.093807 2.673329 -0.342771 -3.741701 -4.237611 -13.376306 15.428817 0.000000 0.000000 0.000000 -3.019894 0.096471 -2.555884 4.741710 -0.771620 -20.275615 -1.677950 -1.019031 27.526615 0.118966 1.330857 -25.102089 0.000000 0.000000 0.000000 -26.195293 1.502793 -2.340760 -52.633505 -9.642903 -4.528457 -11.713567 -22.843252 3.580858 0.000000 0.000000 0.000000 17.239169 6.301650 2.243604 61.347528 5.444391 -5.732257 5.751971 25.613200 2.369825 0.000000 0.000000 0.000000 
0.000107 0.949194 0.000605 -1.201972 0.459878 3.434973 9.426030 -0.193925 1.332775 -4.848340 0.472151 -5.413695 5.787511 14.155437 13.809971 0.000000 0.000000 0.000000 -5.520529 0.172894 -0.097369 2.581823 -0.334886 -3.640243 -4.060417 -13.068667 15.518263 0.000000 0.000000 0.000000 -3.225944 0.095884 -2.567881 4.954675 -0.802305 -20.640661 -1.652602 -1.344638 27.967173 0.117758 1.285031 -25.150649 0.000000 0.000000 0.000000 -26.369102 1.830315 -2.455470 -52.869192 -9.722860 -4.577929 -11.697887 -22.929935 3.617003 0.000000 0.000000 0.000000 16.793524 6.273690 2.184960 61.473047 5.335254 -5.849773 6.023222 25.387368 2.394067 0.000000 0.000000 0.000000 
0.000052 0.949327 0.000657 -1.197737 0.620587 3.312388 9.533799 -0.198849 1.374775 -5.079082 0.485141 -5.326956 5.808393 14.231759 14.047222 0.000000 0.000000 0.000000 -5.396442 0.163394 -0.054792 2.491071 -0.327178 -3.518901 -3.905511 -12.766459 15.396326 0.000000 0.000000 0.000000 -3.240946 0.091108 -2.337762 4.987819 -0.819429 -20.492903 -1.775720 -1.576471 27.897481 0.257120 1.179318 -25.141651 0.000000 0.000000 0.000000 -26.487736 2.040434 -2.558720 -52.971703 -9.408175 -4.723485 -11.964132 -23.199486 3.729069 0.000000 0.000000 0.000000 16.815864 6.416512 2.226869 61.499689 5.163258 -5.935723 6.268259 25.552289 2.458005 0.000000 0.000000 0.000000 
0.000030 0.949407 0.000712 -1.287911 0.559704 3.244189 9.537318 -0.195973 1.385105 -5.088559 0.487015 -5.262352 5.880816 14.317103 13.904006 0.000000 0.000000 0.000000 -5.257908 0.155968 0.004094 2.554102 -0.329556 -3.396854 -3.842013 -12.612320 15.036443 0.000000 0.000000 0.000000 -3.131001 0.089735 -2.258356 4.943766 -0.806407 -20.529589 -1.716581 -1.342575 28.098805 0.352120 1.145460 -24.989552 0.000000 0.000000 0.000000 -26.611942 1.798655 -2.473435 -52.719923 -9.192948 -4.813138 -11.979874 -23.485494 3.774626 0.000000 0.000000 0.000000 16.858585 6.326003 2.233479 61.682259 5.175238 -5.967505 6.271237 25.292911 2.442401 0.000000 0.000000 0.000000 
0.000001 0.949430 0.000800 -1.297288 0.518834 3.161586 9.530770 -0.191968 1.489330 -5.156673 0.491776 -5.266486 5.935386 14.386598 13.824469 0.000000 0.000000 0.000000 -5.189313 0.152038 0.026921 2.497677 -0.324436 -3.359908 -3.767887 -12.473753 14.932775 0.000000 0.000000 0.000000 -3.080619 0.088097 -2.193843 4.899329 -0.796435 -20.517659 -1.655236 -1.242322 28.245707 0.300399 1.182380 -24.903781 0.000000 0.000000 0.000000 -26.583826 1.857800 -2.525540 -52.890523 -9.110341 -4.868636 -11.842764 -23.426186 3.737008 0.000000 0.000000 0.000000 16.848370 6.400559 2.293685 61.674468 5.144119 -6.000406 6.105127 25.124027 2.392336 0.000000 0.000000 0.000000 
-0.000038 0.949502 0.000891 -1.317192 0.414594 3.062310 9.473517 -0.184062 1.601607 -5.138828 0.492588 -5.237522 5.934835 14.345059 13.548659 0.000000 0.000000 0.000000 -5.165257 0.148075 0.085304 2.535057 -0.326906 -3.373850 -3.697014 -12.354542 14.877990 0.000000 0.000000 0.000000 -3.028034 0.086065 -2.100643 4.813031 -0.769292 -20.610945 -1.548288 -1.053132 28.409392 0.122309 1.323378 -25.172976 0.000000 0.000000 0.000000 -26.573650 1.802259 -2.524841 -52.944768 -8.862942 -4.983009 -11.855466 -23.539777 3.756904 0.000000 0.000000 0.000000 16.811184 6.485238 2.371012 61.671057 5.056231 -6.062259 6.134825 24.877343 2.375465 0.000000 0.000000 0.000000 
-0.000087 0.949561 0.000988 -1.298046 0.326206 3.019533 9.528268 -0.181546 1.710069 -5.147014 0.493799 -5.313481 5.869065 14.240163 13.552241 0.000000 0.000000 0.000000 -5.204062 0.146850 0.135680 2.518066 -0.324772 -3.345616 -3.680413 -12.339721 14.885464 0.000000 0.000000 0.000000 -3.000941 0.085325 -2.064149 4.812832 -0.773044 -20.584253 -1.575921 -0.891653 28.365182 0.178808 1.316580 -25.311231 0.000000 0.000000 0.000000 -26.689316 1.767661 -2.553139 -52.792906 -8.612034 -5.070298 -11.762514 -23.530047 3.728482 0.000000 0.000000 0.000000 16.983120 6.546296 2.425648 61.642292 4.929443 -6.121423 6.145632 24.632517 2.351710 0.000000 0.000000 0.000000 
-0.000150 0.949647 0.001095 -1.338944 0.228692 3.069628 9.637412 -0.183544 1.792746 -5.212537 0.497338 -5.434393 5.846926 14.210019 13.665888 0.000000 0.000000 0.000000 -5.213702 0.149555 0.126267 2.586360 -0.327360 -3.235667 -3.636195 -12.267165 14.846446 0.000000 0.000000 0.000000 -2.884244 0.088200 -2.194465 4.765709 -0.766608 -20.516559 -1.550757 -0.807315 28.297671 0.184196 1.335092 -25.596395 0.000000 0.000000 0.000000 -26.547433 1.759813 -2.544759 -52.905570 -8.474299 -5.123997 -11.655715 -23.397198 3.681015 0.000000 0.000000 0.000000 16.820757 6.542217 2.426168 61.773525 4.777586 -6.197604 6.168110 24.471842 2.337125 0.000000 0.000000 0.000000 
-0.000213 0.949752 0.001177 -1.352768 0.136832 3.074989 9.660517 -0.181443 1.873206 -5.232121 0.498523 -5.539003 5.848635 14.209550 13.706877 0.000000 0.000000 0.000000 -5.166468 0.148562 0.137022 2.566924 -0.325844 -3.260365 -3.643590 -12.314351 14.981016 0.000000 0.000000 0.000000 -2.893798 0.089517 -2.255453 4.827272 -0.783250 -20.547020 -1.508323 -0.843192 28.328624 0.125750 1.359435 -25.705014 0.000000 0.000000 0.000000 -26.699148 1.785464 -2.541853 -52.594649 -8.387151 -5.152876 -11.786223 -23.356642 3.702092 0.000000 0.000000 0.000000 16.778518 6.613117 2.440705 61.717854 4.640412 -6.269784 6.224953 24.419278 2.337277 0.000000 0.000000 0.000000 
-0.000290 0.949910 0.001197 -1.421906 -0.047893 2.992100 9.701946 -0.175489 1.946669 -5.118921 0.494162 -5.562067 5.766820 14.088170 13.847986 0.000000 0.000000 0.000000 -5.090304 0.141864 0.235067 2.584232 -0.327305 -3.331846 -3.610410 -12.281292 14.987487 0.000000 0.000000 0.000000 -2.831674 0.090646 -2.327457 4.924566 -0.823645 -20.414833 -1.508744 -0.819849 28.278868 0.174110 1.323426 -25.820696 0.000000 0.000000 0.000000 -26.810654 1.723035 -2.481879 -52.338825 -8.278737 -5.187311 -11.822416 -23.190400 3.678504 0.000000 0.000000 0.000000 16.842504 6.741452 2.481535 61.573293 4.638261 -6.257904 6.120280 24.421318 2.309587 0.000000 0.000000 0.000000 
-0.000365 0.949933 0.001176 -1.418194 -0.215334 3.015964 9.714768 -0.171211 1.992339 -5.199163 0.500421 -5.654581 5.780351 14.090028 13.806308 0.000000 0.000000 0.000000 -5.152403 0.144267 0.268870 2.699475 -0.335442 -3.365198 -3.650900 -12.388729 15.087948 0.000000 0.000000 0.000000 -2.882777 0.093625 -2.475871 5.005594 -0.845988 -20.444464 -1.492919 -0.788410 28.329496 0.218634 1.283887 -25.807885 0.000000 0.000000 0.000000 -26.789431 1.698777 -2.432911 -52.205648 -8.359098 -5.157971 -11.661077 -23.117236 3.633455 0.000000 0.000000 0.000000 16.726045 6.857924 2.522986 61.577513 4.610215 -6.277191 6.158497 24.477359 2.318266 0.000000 0.000000 0.000000 
-0.000478 0.949978 0.001160 -1.423778 -0.528277 3.017417 9.643295 -0.158953 2.096620 -5.239898 0.506694 -5.707340 5.838565 14.159290 13.874183 0.000000 0.000000 0.000000 -5.190276 0.149689 0.258842 2.796734 -0.341641 -3.420096 -3.606808 -12.370502 15.188053 0.000000 0.000000 0.000000 -2.923164 0.098104 -2.689549 5.126100 -0.895374 -20.324522 -1.522075 -0.691980 28.375059 0.293960 1.223599 -25.775301 0.000000 0.000000 0.000000 -26.628507 1.787336 -2.437007 -52.150002 -8.440546 -5.130953 -11.774120 -23.043749 3.646243 0.000000 0.000000 0.000000 16.721253 6.921389 2.530013 61.453085 4.789906 -6.181452 6.022700 24.668171 2.308145 0.000000 0.000000 0.000000 
